<?xml version="1.0" standalone="no"?>
<!DOCTYPE svg PUBLIC "-//W3C//DTD SVG 20010904//EN"
 "http://www.w3.org/TR/2001/REC-SVG-20010904/DTD/svg10.dtd">
<svg version="1.0" xmlns="http://www.w3.org/2000/svg"
 width="250.000000pt" height="250.000000pt" viewBox="0 0 250.000000 250.000000"
 preserveAspectRatio="xMidYMid meet">
<metadata>
Created by potrace 1.11, written by Peter Selinger 2001-2013
</metadata>
<g transform="translate(0.000000,250.000000) scale(0.100000,-0.100000)"
fill="#000000" stroke="none">
<path d="M1420 2351 c0 -5 5 -13 10 -16 6 -3 10 -2 10 4 0 5 -4 13 -10 16 -5
3 -10 2 -10 -4z"/>
<path d="M1536 2314 c-40 -13 -53 -14 -73 -3 -19 10 -65 9 -261 -9 -130 -12
-269 -24 -309 -27 -39 -3 -84 -10 -100 -16 -15 -6 -75 -13 -133 -16 l-105 -5
-29 -36 c-31 -38 -241 -246 -346 -342 l-60 -54 0 -107 c0 -60 4 -110 9 -113 4
-3 11 -29 14 -57 5 -39 18 -69 53 -121 52 -77 52 -60 9 -211 -20 -73 -17 -131
7 -135 21 -4 62 39 84 88 39 86 44 103 46 148 1 47 1 47 5 7 3 -22 9 -44 14
-50 5 -5 9 -21 9 -35 0 -14 9 -43 20 -65 26 -50 25 -83 -1 -111 -11 -12 -25
-39 -30 -61 -12 -52 -11 -150 1 -158 19 -12 41 -80 55 -170 8 -49 19 -106 25
-125 13 -45 66 -93 97 -87 21 4 23 1 23 -37 0 -59 16 -105 47 -139 41 -43 125
-77 189 -77 30 0 54 -4 54 -10 0 -14 33 -13 48 2 9 9 12 9 12 0 0 -15 42 -16
57 -1 6 6 37 13 69 16 33 3 74 12 93 19 18 8 44 14 56 14 14 0 60 33 121 88
69 60 142 111 239 167 100 58 157 98 204 145 152 150 231 317 231 482 l0 89
61 -3 c51 -2 63 0 75 17 19 25 34 81 34 126 0 43 53 118 101 145 23 13 119
129 119 145 0 7 11 31 25 55 14 23 30 66 36 96 6 29 18 65 25 80 26 50 18 76
-38 129 -56 52 -115 89 -144 89 -19 0 -52 15 -199 85 -68 33 -106 45 -158 50
-57 5 -81 13 -155 56 -99 57 -149 67 -226 43z"/>
</g>
</svg>
